<svg width="24" height="24" viewBox="0 0 24 24" fill="none" xmlns="http://www.w3.org/2000/svg">
<path d="M18.4375 3.75H15C15 2.2332 13.7668 1 12.25 1C10.7332 1 9.5 2.2332 9.5 3.75H6.0625C4.92383 3.75 4 4.67383 4 5.8125V20.9375C4 22.0762 4.92383 23 6.0625 23H18.4375C19.5762 23 20.5 22.0762 20.5 20.9375V5.8125C20.5 4.67383 19.5762 3.75 18.4375 3.75ZM8.125 19.2188C7.55352 19.2188 7.09375 18.759 7.09375 18.1875C7.09375 17.616 7.55352 17.1562 8.125 17.1562C8.69648 17.1562 9.15625 17.616 9.15625 18.1875C9.15625 18.759 8.69648 19.2188 8.125 19.2188ZM8.125 15.0938C7.55352 15.0938 7.09375 14.634 7.09375 14.0625C7.09375 13.491 7.55352 13.0312 8.125 13.0312C8.69648 13.0312 9.15625 13.491 9.15625 14.0625C9.15625 14.634 8.69648 15.0938 8.125 15.0938ZM8.125 10.9688C7.55352 10.9688 7.09375 10.509 7.09375 9.9375C7.09375 9.36602 7.55352 8.90625 8.125 8.90625C8.69648 8.90625 9.15625 9.36602 9.15625 9.9375C9.15625 10.509 8.69648 10.9688 8.125 10.9688ZM12.25 2.71875C12.8215 2.71875 13.2812 3.17852 13.2812 3.75C13.2812 4.32148 12.8215 4.78125 12.25 4.78125C11.6785 4.78125 11.2188 4.32148 11.2188 3.75C11.2188 3.17852 11.6785 2.71875 12.25 2.71875ZM17.75 18.5312C17.75 18.7203 17.5953 18.875 17.4062 18.875H11.2188C11.0297 18.875 10.875 18.7203 10.875 18.5312V17.8438C10.875 17.6547 11.0297 17.5 11.2188 17.5H17.4062C17.5953 17.5 17.75 17.6547 17.75 17.8438V18.5312ZM17.75 14.4062C17.75 14.5953 17.5953 14.75 17.4062 14.75H11.2188C11.0297 14.75 10.875 14.5953 10.875 14.4062V13.7188C10.875 13.5297 11.0297 13.375 11.2188 13.375H17.4062C17.5953 13.375 17.75 13.5297 17.75 13.7188V14.4062ZM17.75 10.2812C17.75 10.4703 17.5953 10.625 17.4062 10.625H11.2188C11.0297 10.625 10.875 10.4703 10.875 10.2812V9.59375C10.875 9.40469 11.0297 9.25 11.2188 9.25H17.4062C17.5953 9.25 17.75 9.40469 17.75 9.59375V10.2812Z" fill="#343735"/>
</svg>
