<svg xmlns="http://www.w3.org/2000/svg" viewBox="-0.5 -0.5 16 16">
    <path d="M14.0625 1.600359375 13.399640625 0.9375 0.9375 13.399640625 1.600359375 14.0625l0.9375 -0.9375H12.1875a0.9387656249999999 0.9387656249999999 0 0 0 0.9375 -0.9375V2.537859375ZM12.1875 12.1875H3.475359375l3.652921875 -3.65296875 1.1150625 1.1150156249999998a0.9375 0.9375 0 0 0 1.3258124999999998 0L10.3125 8.90625l1.875 1.873734375Zm0 -2.73365625 -1.21209375 -1.212140625a0.9375 0.9375 0 0 0 -1.3258124999999998 0L8.90625 8.985093749999999l-1.1142187499999998 -1.114265625L12.1875 3.475359375Z"/>
    <path d="M2.8125 10.3125v-1.40625l2.34375 -2.34215625 0.643734375 0.643734375 0.663703125 -0.66375 -0.64453125 -0.64453125a0.9375 0.9375 0 0 0 -1.3258124999999998 0L2.8125 7.5804375V2.8125h7.5V1.875H2.8125a0.9384374999999999 0.9384374999999999 0 0 0 -0.9375 0.9375v7.5Z"/>
    <path id="_Transparent_Rectangle_" d="M0 0h15v15H0Z" fill="none"/>
</svg>